<svg xmlns="http://www.w3.org/2000/svg" width="18.419" height="29.753" viewBox="0 0 18.419 29.753"><g opacity="0.5"><path d="M14.256,1.664a.708.708,0,0,1,.907,0l8.5,7.084a.708.708,0,0,1,.255.544V23.461a.708.708,0,0,1-.255.544l-8.5,7.084a.708.708,0,0,1-.907,0L5.755,24a.708.708,0,0,1-.255-.544V9.292a.708.708,0,0,1,.255-.544l8.5-7.084ZM6.917,9.624V23.129l7.793,6.493L22.5,23.129V9.624L14.709,3.131Z" transform="translate(-5.5 -1.5)" fill="#fff" fill-rule="evenodd"/><path d="M12.98,5.686a.708.708,0,0,1,.958,0l4.25,3.9a.708.708,0,0,1,.23.523v9.209a.708.708,0,0,1-.23.523l-4.25,3.9a.708.708,0,0,1-.958,0l-4.25-3.9a.708.708,0,0,1-.23-.523V10.1a.708.708,0,0,1,.23-.523l4.25-3.9ZM9.917,10.417V19l3.542,3.247L17,19V10.417L13.459,7.169Z" transform="translate(-4.25 0.167)" fill="#fff" fill-rule="evenodd"/></g></svg>