<svg xmlns="http://www.w3.org/2000/svg" width="304" height="304" viewBox="0 0 304 304"><defs><style>.a{fill:#9a9393ea;}</style></defs><path class="a" d="M260.4,2H47.6A45.6,45.6,0,0,0,2,47.6V260.4A45.6,45.6,0,0,0,47.6,306H260.4a42.715,42.715,0,0,0,7.448-.76l4.56-1.064h1.824l5.624-2.128,1.976-1.064c1.52-.912,3.192-1.672,4.712-2.736a57.6,57.6,0,0,0,5.776-4.864l1.064-1.368a40.889,40.889,0,0,0,4.1-4.864l1.368-1.976a35.111,35.111,0,0,0,2.736-5.32,15.2,15.2,0,0,0,1.064-2.28c.76-1.824,1.216-3.8,1.824-5.776v-2.28A39.521,39.521,0,0,0,306,260.4V47.6A45.6,45.6,0,0,0,260.4,2ZM47.6,275.6a15.2,15.2,0,0,1-15.2-15.2V194.888l50.008-50.16h0a15.2,15.2,0,0,1,21.584,0L234.712,275.6Zm228-15.2a12.348,12.348,0,0,1-2.28,7.6,14.3,14.3,0,0,1-1.368,1.824l-81.32-81.32,13.376-13.376a15.2,15.2,0,0,1,21.584,0h0l50.008,50.16Zm0-78.128L247.024,154a46.816,46.816,0,0,0-64.448,0L169.2,167.376,125.424,123.6a46.816,46.816,0,0,0-64.448,0L32.4,151.872V47.6A15.2,15.2,0,0,1,47.6,32.4H260.4a15.2,15.2,0,0,1,15.2,15.2ZM176.8,62.8a22.8,22.8,0,1,0,22.8,22.8A22.8,22.8,0,0,0,176.8,62.8Z" transform="translate(-2 -2)"/></svg>