<svg xmlns="http://www.w3.org/2000/svg" width="507" height="488" viewBox="0 0 507 488"><defs><style>.a{fill:#fff;}.b{fill:#707070;}</style></defs><g transform="translate(-205 -354)"><rect class="a" width="507" height="488" rx="16" transform="translate(205 354)"/><path class="b" d="M16,1A15,15,0,0,0,1,16V472a15,15,0,0,0,15,15H491a15,15,0,0,0,15-15V16A15,15,0,0,0,491,1H16m0-1H491a16,16,0,0,1,16,16V472a16,16,0,0,1-16,16H16A16,16,0,0,1,0,472V16A16,16,0,0,1,16,0Z" transform="translate(205 354)"/><path d="M169.195,2H31.5A29.5,29.5,0,0,0,2,31.505v137.69A29.5,29.5,0,0,0,31.5,198.7h137.69a27.639,27.639,0,0,0,4.819-.492l2.951-.688h1.18l3.639-1.377,1.279-.688c.984-.59,2.065-1.082,3.049-1.77a37.273,37.273,0,0,0,3.737-3.147l.688-.885a26.457,26.457,0,0,0,2.655-3.147l.885-1.279a22.719,22.719,0,0,0,1.77-3.442,9.836,9.836,0,0,0,.688-1.475c.492-1.18.787-2.459,1.18-3.737V175.1a25.572,25.572,0,0,0,.984-5.9V31.505A29.5,29.5,0,0,0,169.195,2ZM31.5,179.03a9.835,9.835,0,0,1-9.835-9.835V126.806L54.027,94.351h0a9.835,9.835,0,0,1,13.966,0l84.581,84.679Zm147.525-9.835a7.989,7.989,0,0,1-1.475,4.917,9.248,9.248,0,0,1-.885,1.18l-52.617-52.617,8.655-8.655a9.835,9.835,0,0,1,13.966,0h0l32.357,32.456Zm0-50.552L160.54,100.35a30.292,30.292,0,0,0-41.7,0L110.185,109,81.86,80.68a30.292,30.292,0,0,0-41.7,0L21.67,98.973V31.505A9.835,9.835,0,0,1,31.5,21.67h137.69a9.835,9.835,0,0,1,9.835,9.835ZM115.1,41.34a14.753,14.753,0,1,0,14.753,14.752A14.752,14.752,0,0,0,115.1,41.34Z" transform="translate(358.15 497.65)"/></g></svg>